<?xml version="1.0" standalone="no"?>
<!DOCTYPE svg PUBLIC "-//W3C//DTD SVG 20010904//EN"
 "http://www.w3.org/TR/2001/REC-SVG-20010904/DTD/svg10.dtd">
<svg version="1.0" xmlns="http://www.w3.org/2000/svg"
 width="624.000000pt" height="624.000000pt" viewBox="0 0 624.000000 624.000000"
 preserveAspectRatio="xMidYMid meet">
<metadata>
Created by potrace 1.14, written by Peter Selinger 2001-2017
</metadata>
<g transform="translate(0.000000,624.000000) scale(0.100000,-0.100000)"
fill="#000000" stroke="none">
<path d="M2983 6210 c-116 -55 -177 -151 -176 -275 1 -86 29 -152 91 -212 87
-85 199 -109 311 -67 77 28 160 108 173 164 2 8 7 18 11 21 16 12 16 137 0
186 -59 176 -249 261 -410 183z"/>
<path d="M1469 5497 c-79 -20 -139 -98 -139 -182 0 -162 190 -246 307 -136 50
47 62 75 60 148 -2 71 -34 121 -99 154 -48 24 -80 28 -129 16z"/>
<path d="M4577 5488 c-194 -87 -123 -373 89 -356 41 4 63 12 92 34 141 113 73
326 -107 338 -18 1 -51 -6 -74 -16z"/>
<path d="M3086 5374 c-24 -63 -152 -217 -257 -310 -39 -35 -161 -111 -220
-137 -58 -26 -162 -61 -219 -73 -19 -4 -42 -9 -50 -12 -8 -2 -73 -5 -145 -7
-175 -5 -307 20 -453 87 -24 10 -46 18 -48 15 -7 -7 34 -116 73 -190 44 -83
111 -183 157 -231 l31 -33 1145 1 1146 1 27 27 c15 15 27 32 27 38 0 5 3 10 8
10 4 0 18 17 32 38 14 20 27 39 30 42 27 27 148 296 137 306 -1 1 -24 -9 -52
-22 -41 -20 -123 -49 -170 -60 -127 -29 -160 -33 -280 -30 -71 2 -142 7 -157
10 -16 3 -38 8 -50 10 -52 11 -67 15 -145 45 -112 43 -238 122 -330 206 -78
71 -169 185 -200 249 -18 39 -28 44 -37 20z"/>
<path d="M1989 4225 c-3 -35 -4 -272 -1 -282 3 -9 261 -12 1113 -12 l1109 0 1
72 c1 189 0 219 -6 225 -11 12 -2215 8 -2216 -3z"/>
<path d="M2347 3684 c-2 -2 -19 -5 -37 -8 -95 -13 -227 -70 -310 -135 -58 -45
-160 -152 -160 -168 0 -7 -4 -13 -10 -13 -5 0 -10 -5 -10 -10 0 -6 -11 -27
-23 -48 -20 -31 -42 -83 -54 -127 -13 -51 -23 -98 -27 -128 -4 -34 -1 -40 47
-79 91 -77 217 -230 217 -265 0 -7 4 -13 9 -13 10 0 72 -154 78 -195 2 -16 9
-46 15 -65 7 -20 12 -130 13 -267 1 -217 6 -264 23 -237 16 25 214 137 332
187 37 16 185 67 210 72 8 2 35 8 60 14 101 23 145 29 250 36 41 2 77 5 80 6
28 7 255 -7 330 -21 84 -15 91 -17 155 -34 33 -9 67 -18 75 -20 96 -24 379
-159 428 -203 7 -7 17 -13 22 -13 5 0 16 -7 25 -16 9 -9 18 -15 20 -13 2 2 5
112 8 244 5 261 5 261 44 385 52 164 166 327 296 425 38 28 39 30 33 79 -9 86
-32 161 -71 238 -72 140 -175 244 -319 318 -42 22 -76 38 -76 35 0 -2 -18 2
-39 10 -22 7 -54 17 -73 21 -31 6 -1554 14 -1561 8z"/>
<path d="M1115 2913 c-244 -44 -423 -186 -509 -404 -33 -84 -37 -106 -41 -219
-10 -278 160 -527 425 -622 81 -30 124 -36 256 -37 l81 -1 0 -562 c0 -321 4
-563 9 -565 5 -2 804 -4 1776 -6 l1766 -2 1 220 c0 121 1 227 1 235 0 8 0 117
-1 241 -2 124 1 231 5 237 4 7 4 12 -1 12 -4 0 -7 33 -6 72 1 40 2 83 3 96 0
21 3 22 93 22 50 0 124 7 162 15 76 16 213 79 258 119 16 14 32 26 35 28 33
15 161 196 168 238 2 8 8 23 13 35 30 58 44 224 27 324 -10 60 -51 167 -81
213 -14 21 -25 40 -25 43 0 5 -21 29 -73 83 -36 37 -120 102 -133 102 -4 0
-15 6 -23 13 -9 8 -43 23 -76 35 -266 94 -562 11 -728 -206 -42 -54 -113 -182
-102 -182 3 0 1 -9 -5 -21 -7 -11 -13 -33 -16 -47 -2 -15 -7 -49 -11 -77 -4
-27 -8 -337 -7 -687 l1 -637 -1254 -1 -1253 0 0 63 c-1 34 -1 334 -1 667 -1
560 -2 610 -20 679 -18 72 -78 195 -115 240 -101 119 -207 189 -344 228 -51
14 -210 24 -255 16z m129 -443 c28 0 97 -45 125 -81 34 -43 44 -115 24 -174
-34 -104 -142 -162 -243 -131 -105 32 -162 134 -138 247 5 20 36 69 58 90 33
33 109 62 138 53 8 -2 24 -4 36 -4z m3831 -11 c100 -32 156 -166 110 -263 -72
-150 -268 -161 -356 -20 -34 56 -33 148 4 203 28 42 83 83 121 88 11 2 21 5
24 7 5 6 61 -3 97 -15z"/>
<path d="M3017 1994 c-1 -1 -35 -4 -75 -8 -41 -3 -77 -8 -80 -10 -4 -2 -25 -7
-47 -10 -96 -16 -218 -55 -330 -107 -72 -33 -223 -123 -262 -156 -12 -10 -35
-28 -50 -40 -84 -66 -79 -50 -79 -228 1 -118 4 -161 13 -165 9 -4 1963 -5
1996 -1 4 1 7 75 7 166 l0 164 -62 51 c-35 29 -71 58 -81 66 -9 8 -21 14 -26
14 -5 0 -11 4 -13 8 -4 10 -107 72 -183 109 -106 53 -261 105 -350 119 -22 3
-42 7 -45 9 -16 10 -323 27 -333 19z"/>
<path d="M1855 250 c-5 -8 -7 -61 -6 -155 l1 -91 118 2 c64 1 119 2 122 3 3 0
5 55 5 121 0 113 -1 120 -20 121 -85 4 -217 3 -220 -1z"/>
<path d="M4114 251 c-2 -2 -4 -57 -4 -122 0 -85 3 -118 13 -121 6 -2 62 -4
122 -4 l110 1 1 123 c1 118 0 122 -20 123 -92 3 -218 3 -222 0z"/>
</g>
</svg>
