<svg width="20" height="21" viewBox="0 0 20 21" fill="none" xmlns="http://www.w3.org/2000/svg">
<path d="M17.0611 5.63293H14.6331C14.6331 4.3435 14.1214 3.10688 13.2107 2.19511C12.3 1.28334 11.0649 0.771118 9.77694 0.771118C8.48902 0.771118 7.25385 1.28334 6.34315 2.19511C5.43245 3.10688 4.92082 4.3435 4.92082 5.63293H2.49277C1.84881 5.63293 1.23122 5.88904 0.77587 6.34492C0.320521 6.80081 0.0647087 7.41912 0.0647087 8.06383L0.0647087 16.1668C0.0659938 17.241 0.492761 18.2708 1.2514 19.0303C2.01003 19.7898 3.0386 20.2171 4.11147 20.2184H11.3956C11.6103 20.2184 11.8162 20.133 11.9679 19.981C12.1197 19.8291 12.205 19.623 12.205 19.4081C12.205 19.1931 12.1197 18.987 11.9679 18.8351C11.8162 18.6831 11.6103 18.5978 11.3956 18.5978H4.11147C3.46751 18.5978 2.84992 18.3416 2.39458 17.8858C1.93923 17.4299 1.68341 16.8116 1.68341 16.1668V8.06383C1.68341 7.84893 1.76868 7.64282 1.92047 7.49086C2.07225 7.3389 2.27811 7.25353 2.49277 7.25353H4.92082V8.87413C4.92082 9.08904 5.00609 9.29514 5.15788 9.4471C5.30966 9.59906 5.51552 9.68443 5.73018 9.68443C5.94483 9.68443 6.15069 9.59906 6.30248 9.4471C6.45426 9.29514 6.53953 9.08904 6.53953 8.87413V7.25353H13.0143V8.87413C13.0143 9.08904 13.0996 9.29514 13.2514 9.4471C13.4032 9.59906 13.609 9.68443 13.8237 9.68443C14.0384 9.68443 14.2442 9.59906 14.396 9.4471C14.5478 9.29514 14.6331 9.08904 14.6331 8.87413V7.25353H17.0611C17.2758 7.25353 17.4816 7.3389 17.6334 7.49086C17.7852 7.64282 17.8705 7.84893 17.8705 8.06383V12.1153C17.8705 12.3302 17.9557 12.5363 18.1075 12.6883C18.2593 12.8403 18.4652 12.9256 18.6798 12.9256C18.8945 12.9256 19.1003 12.8403 19.2521 12.6883C19.4039 12.5363 19.4892 12.3302 19.4892 12.1153V8.06383C19.4892 7.41912 19.2334 6.80081 18.778 6.34492C18.3227 5.88904 17.7051 5.63293 17.0611 5.63293ZM6.53953 5.63293C6.53953 4.77331 6.88061 3.94889 7.48774 3.34105C8.09488 2.7332 8.91833 2.39172 9.77694 2.39172C10.6356 2.39172 11.459 2.7332 12.0661 3.34105C12.6733 3.94889 13.0143 4.77331 13.0143 5.63293H6.53953Z" fill="#757575"/>
</svg>
