<svg width="108" height="24" viewBox="0 0 108 24" fill="none" xmlns="http://www.w3.org/2000/svg">
<path d="M1.448 18C1.288 18 1.152 17.944 1.04 17.832C0.928 17.72 0.872 17.584 0.872 17.424V1.8C0.872 1.624 0.92 1.48 1.016 1.368C1.128 1.256 1.272 1.2 1.448 1.2H11.864C12.04 1.2 12.184 1.256 12.296 1.368C12.408 1.48 12.464 1.624 12.464 1.8V3.48C12.464 3.656 12.408 3.8 12.296 3.912C12.184 4.008 12.04 4.056 11.864 4.056H4.16V8.616H11.384C11.56 8.616 11.704 8.672 11.816 8.784C11.928 8.896 11.984 9.04 11.984 9.216V10.896C11.984 11.072 11.928 11.216 11.816 11.328C11.704 11.424 11.56 11.472 11.384 11.472H4.16V17.424C4.16 17.6 4.104 17.744 3.992 17.856C3.88 17.952 3.736 18 3.56 18H1.448ZM19.4426 18.24C17.9706 18.24 16.8106 17.76 15.9626 16.8C15.1146 15.824 14.6906 14.504 14.6906 12.84V6.096C14.6906 5.936 14.7466 5.8 14.8586 5.688C14.9706 5.576 15.1066 5.52 15.2666 5.52H17.3786C17.5546 5.52 17.6906 5.576 17.7866 5.688C17.8986 5.784 17.9546 5.92 17.9546 6.096V12.696C17.9546 14.68 18.8266 15.672 20.5706 15.672C21.4026 15.672 22.0586 15.408 22.5386 14.88C23.0346 14.352 23.2826 13.624 23.2826 12.696V6.096C23.2826 5.936 23.3386 5.8 23.4506 5.688C23.5626 5.576 23.6986 5.52 23.8586 5.52H25.9706C26.1466 5.52 26.2826 5.576 26.3786 5.688C26.4906 5.784 26.5466 5.92 26.5466 6.096V17.424C26.5466 17.584 26.4906 17.72 26.3786 17.832C26.2826 17.944 26.1466 18 25.9706 18H24.0266C23.8666 18 23.7306 17.944 23.6186 17.832C23.5066 17.72 23.4506 17.584 23.4506 17.424V16.44C22.5546 17.64 21.2186 18.24 19.4426 18.24ZM30.2928 18C30.1328 18 29.9968 17.944 29.8848 17.832C29.7728 17.72 29.7168 17.584 29.7168 17.424V6.12C29.7168 5.96 29.7728 5.824 29.8848 5.712C29.9968 5.584 30.1328 5.52 30.2928 5.52H32.2368C32.4128 5.52 32.5568 5.576 32.6688 5.688C32.7808 5.8 32.8368 5.944 32.8368 6.12V7.104C33.2208 6.592 33.7008 6.2 34.2768 5.928C34.8688 5.656 35.5408 5.52 36.2928 5.52H37.2768C37.4528 5.52 37.5888 5.576 37.6848 5.688C37.7968 5.784 37.8528 5.92 37.8528 6.096V7.824C37.8528 7.984 37.7968 8.12 37.6848 8.232C37.5888 8.344 37.4528 8.4 37.2768 8.4H35.4048C34.6528 8.4 34.0608 8.616 33.6288 9.048C33.1968 9.48 32.9808 10.072 32.9808 10.824V17.424C32.9808 17.584 32.9248 17.72 32.8128 17.832C32.7008 17.944 32.5568 18 32.3808 18H30.2928ZM40.3006 18C40.1406 18 40.0046 17.944 39.8926 17.832C39.7806 17.72 39.7246 17.584 39.7246 17.424V6.096C39.7246 5.936 39.7806 5.8 39.8926 5.688C40.0046 5.576 40.1406 5.52 40.3006 5.52H42.2686C42.4286 5.52 42.5646 5.576 42.6766 5.688C42.7886 5.8 42.8446 5.936 42.8446 6.096V7.08C43.7886 5.88 45.1246 5.28 46.8526 5.28C48.3246 5.28 49.4926 5.768 50.3566 6.744C51.2206 7.704 51.6526 9.016 51.6526 10.68V17.424C51.6526 17.584 51.5966 17.72 51.4846 17.832C51.3886 17.944 51.2526 18 51.0766 18H48.9646C48.8046 18 48.6686 17.944 48.5566 17.832C48.4446 17.72 48.3886 17.584 48.3886 17.424V10.824C48.3886 9.88 48.1566 9.152 47.6926 8.64C47.2446 8.112 46.5886 7.848 45.7246 7.848C44.8766 7.848 44.2046 8.112 43.7086 8.64C43.2286 9.168 42.9886 9.896 42.9886 10.824V17.424C42.9886 17.584 42.9326 17.72 42.8206 17.832C42.7246 17.944 42.5886 18 42.4126 18H40.3006ZM55.1812 3.456C55.0212 3.456 54.8852 3.4 54.7732 3.288C54.6612 3.176 54.6052 3.04 54.6052 2.88V1.152C54.6052 0.992 54.6612 0.855999 54.7732 0.743999C54.8852 0.631999 55.0212 0.576 55.1812 0.576H57.3652C57.5252 0.576 57.6612 0.631999 57.7732 0.743999C57.9012 0.855999 57.9652 0.992 57.9652 1.152V2.88C57.9652 3.04 57.9092 3.176 57.7972 3.288C57.6852 3.4 57.5412 3.456 57.3652 3.456H55.1812ZM55.2772 18C55.1172 18 54.9812 17.944 54.8692 17.832C54.7572 17.72 54.7012 17.584 54.7012 17.424V6.096C54.7012 5.936 54.7572 5.8 54.8692 5.688C54.9812 5.576 55.1172 5.52 55.2772 5.52H57.2692C57.4452 5.52 57.5812 5.576 57.6772 5.688C57.7892 5.784 57.8452 5.92 57.8452 6.096V17.424C57.8452 17.584 57.7892 17.72 57.6772 17.832C57.5812 17.944 57.4452 18 57.2692 18H55.2772ZM61.6293 18C61.4693 18 61.3333 17.944 61.2213 17.832C61.1093 17.72 61.0533 17.584 61.0533 17.424V1.536C61.0533 1.36 61.1093 1.224 61.2213 1.128C61.3333 1.016 61.4693 0.959999 61.6293 0.959999H63.5733C63.7493 0.959999 63.8853 1.016 63.9813 1.128C64.0933 1.224 64.1493 1.36 64.1493 1.536V9.744L68.1813 5.928C68.2293 5.896 68.3093 5.832 68.4213 5.736C68.5173 5.656 68.6133 5.6 68.7093 5.568C68.8053 5.536 68.9253 5.52 69.0693 5.52H71.3013C71.4613 5.52 71.5893 5.568 71.6853 5.664C71.7813 5.76 71.8293 5.888 71.8293 6.048C71.8293 6.192 71.7493 6.336 71.5893 6.48L66.6453 11.112L72.1893 17.064C72.3493 17.224 72.4293 17.36 72.4293 17.472C72.4293 17.632 72.3733 17.76 72.2613 17.856C72.1653 17.952 72.0453 18 71.9013 18H69.6213C69.3973 18 69.2293 17.976 69.1173 17.928C69.0213 17.864 68.8933 17.752 68.7333 17.592L64.1493 12.768V17.424C64.1493 17.584 64.0933 17.72 63.9813 17.832C63.8853 17.944 63.7493 18 63.5733 18H61.6293ZM74.7046 3.456C74.5446 3.456 74.4086 3.4 74.2966 3.288C74.1846 3.176 74.1286 3.04 74.1286 2.88V1.152C74.1286 0.992 74.1846 0.855999 74.2966 0.743999C74.4086 0.631999 74.5446 0.576 74.7046 0.576H76.8886C77.0486 0.576 77.1846 0.631999 77.2966 0.743999C77.4246 0.855999 77.4886 0.992 77.4886 1.152V2.88C77.4886 3.04 77.4326 3.176 77.3206 3.288C77.2086 3.4 77.0646 3.456 76.8886 3.456H74.7046ZM74.8006 18C74.6406 18 74.5046 17.944 74.3926 17.832C74.2806 17.72 74.2246 17.584 74.2246 17.424V6.096C74.2246 5.936 74.2806 5.8 74.3926 5.688C74.5046 5.576 74.6406 5.52 74.8006 5.52H76.7926C76.9686 5.52 77.1046 5.576 77.2006 5.688C77.3126 5.784 77.3686 5.92 77.3686 6.096V17.424C77.3686 17.584 77.3126 17.72 77.2006 17.832C77.1046 17.944 76.9686 18 76.7926 18H74.8006ZM81.1288 18C80.9688 18 80.8328 17.944 80.7208 17.832C80.6088 17.72 80.5527 17.584 80.5527 17.424V6.096C80.5527 5.936 80.6088 5.8 80.7208 5.688C80.8328 5.576 80.9688 5.52 81.1288 5.52H83.0968C83.2568 5.52 83.3928 5.576 83.5048 5.688C83.6168 5.8 83.6728 5.936 83.6728 6.096V7.08C84.6168 5.88 85.9528 5.28 87.6808 5.28C89.1528 5.28 90.3208 5.768 91.1848 6.744C92.0488 7.704 92.4808 9.016 92.4808 10.68V17.424C92.4808 17.584 92.4248 17.72 92.3128 17.832C92.2168 17.944 92.0808 18 91.9048 18H89.7928C89.6328 18 89.4968 17.944 89.3848 17.832C89.2728 17.72 89.2168 17.584 89.2168 17.424V10.824C89.2168 9.88 88.9848 9.152 88.5208 8.64C88.0728 8.112 87.4168 7.848 86.5528 7.848C85.7048 7.848 85.0328 8.112 84.5368 8.64C84.0568 9.168 83.8168 9.896 83.8168 10.824V17.424C83.8168 17.584 83.7608 17.72 83.6488 17.832C83.5528 17.944 83.4168 18 83.2408 18H81.1288ZM101.169 23.28C99.7453 23.28 98.5933 23.04 97.7133 22.56C96.8333 22.096 96.2093 21.56 95.8413 20.952C95.4733 20.344 95.2893 19.824 95.2893 19.392C95.2893 19.248 95.3453 19.12 95.4573 19.008C95.5853 18.896 95.7213 18.84 95.8653 18.84H97.9533C98.0973 18.84 98.2173 18.872 98.3133 18.936C98.4253 19.016 98.5133 19.152 98.5773 19.344C98.7373 19.776 98.9933 20.136 99.3453 20.424C99.7133 20.728 100.281 20.88 101.049 20.88C102.009 20.88 102.713 20.664 103.161 20.232C103.625 19.8 103.857 19.056 103.857 18V16.368C102.977 17.408 101.745 17.928 100.161 17.928C98.4973 17.928 97.2413 17.416 96.3933 16.392C95.5613 15.368 95.1133 13.992 95.0493 12.264L95.0253 11.616L95.0493 10.968C95.1133 9.272 95.5693 7.904 96.4173 6.864C97.2653 5.808 98.5133 5.28 100.161 5.28C101.009 5.28 101.753 5.44 102.393 5.76C103.033 6.08 103.569 6.52 104.001 7.08V6.12C104.001 5.944 104.057 5.8 104.169 5.688C104.281 5.576 104.417 5.52 104.577 5.52H106.521C106.681 5.52 106.817 5.584 106.929 5.712C107.041 5.824 107.097 5.96 107.097 6.12L107.121 17.688C107.121 19.464 106.625 20.84 105.633 21.816C104.641 22.792 103.153 23.28 101.169 23.28ZM101.049 15.384C101.961 15.384 102.641 15.096 103.089 14.52C103.553 13.944 103.809 13.24 103.857 12.408C103.873 12.28 103.881 12.016 103.881 11.616C103.881 11.232 103.873 10.976 103.857 10.848C103.809 10 103.553 9.288 103.089 8.712C102.641 8.136 101.961 7.848 101.049 7.848C99.3213 7.848 98.4093 8.912 98.3133 11.04L98.2893 11.616C98.2893 12.752 98.4893 13.664 98.8893 14.352C99.3053 15.04 100.025 15.384 101.049 15.384Z" fill="#555555"/>
</svg>
